<svg width="24" height="24" viewBox="0 0 24 24" fill="none" xmlns="http://www.w3.org/2000/svg">
<path fill-rule="evenodd" clip-rule="evenodd" d="M12.0001 3.40002C9.90142 3.40002 8.2001 5.10134 8.2001 7.20002C8.2001 9.29871 9.90142 11 12.0001 11C14.0988 11 15.8001 9.29871 15.8001 7.20002C15.8001 5.10134 14.0988 3.40002 12.0001 3.40002ZM9.4001 7.20002C9.4001 5.76408 10.5642 4.60002 12.0001 4.60002C13.436 4.60002 14.6001 5.76408 14.6001 7.20002C14.6001 8.63596 13.436 9.80002 12.0001 9.80002C10.5642 9.80002 9.4001 8.63596 9.4001 7.20002Z" fill="#9E9E9E"/>
<path d="M16.8001 5.00002C16.4687 5.00002 16.2001 5.26865 16.2001 5.60002C16.2001 5.9314 16.4687 6.20002 16.8001 6.20002C17.9013 6.20002 18.6001 6.92461 18.6001 7.60002C18.6001 8.27544 17.9013 9.00002 16.8001 9.00002C16.4687 9.00002 16.2001 9.26865 16.2001 9.60002C16.2001 9.93139 16.4687 10.2 16.8001 10.2C18.3499 10.2 19.8001 9.13375 19.8001 7.60002C19.8001 6.0663 18.3499 5.00002 16.8001 5.00002Z" fill="#9E9E9E"/>
<path d="M7.8001 5.60002C7.8001 5.26865 7.53147 5.00002 7.2001 5.00002C5.65032 5.00002 4.2001 6.0663 4.2001 7.60002C4.2001 9.13375 5.65032 10.2 7.2001 10.2C7.53147 10.2 7.8001 9.93139 7.8001 9.60002C7.8001 9.26865 7.53147 9.00002 7.2001 9.00002C6.09891 9.00002 5.4001 8.27544 5.4001 7.60002C5.4001 6.92461 6.09891 6.20002 7.2001 6.20002C7.53147 6.20002 7.8001 5.9314 7.8001 5.60002Z" fill="#9E9E9E"/>
<path fill-rule="evenodd" clip-rule="evenodd" d="M12.0001 12.2C10.5727 12.2 9.25326 12.5847 8.27316 13.2381C7.29727 13.8887 6.6001 14.8533 6.6001 16C6.6001 17.1467 7.29727 18.1114 8.27316 18.762C9.25326 19.4154 10.5727 19.8 12.0001 19.8C13.4275 19.8 14.7469 19.4154 15.727 18.762C16.7029 18.1114 17.4001 17.1467 17.4001 16C17.4001 14.8533 16.7029 13.8887 15.727 13.2381C14.7469 12.5847 13.4275 12.2 12.0001 12.2ZM7.8001 16C7.8001 15.3794 8.17745 14.7441 8.93881 14.2365C9.69597 13.7317 10.7765 13.4 12.0001 13.4C13.2236 13.4 14.3042 13.7317 15.0614 14.2365C15.8227 14.7441 16.2001 15.3794 16.2001 16C16.2001 16.6207 15.8227 17.256 15.0614 17.7635C14.3042 18.2683 13.2236 18.6 12.0001 18.6C10.7765 18.6 9.69597 18.2683 8.93881 17.7635C8.17745 17.256 7.8001 16.6207 7.8001 16Z" fill="#9E9E9E"/>
<path d="M17.814 13.4715C17.885 13.1478 18.2049 12.943 18.5286 13.014C19.2981 13.1827 19.9915 13.4875 20.5063 13.9088C21.0207 14.3297 21.4001 14.9082 21.4001 15.6C21.4001 16.2918 21.0207 16.8704 20.5063 17.2913C19.9915 17.7125 19.2981 18.0173 18.5286 18.1861C18.2049 18.2571 17.885 18.0522 17.814 17.7285C17.743 17.4049 17.9479 17.0849 18.2716 17.014C18.9055 16.8749 19.4121 16.6362 19.7464 16.3626C20.0812 16.0886 20.2001 15.8211 20.2001 15.6C20.2001 15.379 20.0812 15.1114 19.7464 14.8375C19.4121 14.5639 18.9055 14.3251 18.2716 14.1861C17.9479 14.1151 17.743 13.7952 17.814 13.4715Z" fill="#9E9E9E"/>
<path d="M5.47158 13.014C5.79525 12.943 6.11519 13.1478 6.18617 13.4715C6.25715 13.7952 6.0523 14.1151 5.72862 14.1861C5.09473 14.3251 4.58814 14.5639 4.2538 14.8375C3.919 15.1114 3.8001 15.379 3.8001 15.6C3.8001 15.8211 3.919 16.0886 4.2538 16.3626C4.58814 16.6362 5.09473 16.8749 5.72862 17.014C6.0523 17.0849 6.25715 17.4049 6.18617 17.7285C6.11519 18.0522 5.79525 18.2571 5.47158 18.1861C4.70207 18.0173 4.00866 17.7125 3.49385 17.2913C2.9795 16.8704 2.6001 16.2918 2.6001 15.6C2.6001 14.9082 2.9795 14.3297 3.49385 13.9088C4.00866 13.4875 4.70207 13.1827 5.47158 13.014Z" fill="#9E9E9E"/>
</svg>
