<svg viewBox="0 0 24 24" fill="none" xmlns="http://www.w3.org/2000/svg">
<path d="M4 12C4 8.22876 4 6.34315 5.17157 5.17157C6.34315 4 8.22876 4 12 4C15.7712 4 17.6569 4 18.8284 5.17157C20 6.34315 20 8.22876 20 12C20 15.7712 20 17.6569 18.8284 18.8284C17.6569 20 15.7712 20 12 20C8.22876 20 6.34315 20 5.17157 18.8284C4 17.6569 4 15.7712 4 12Z" stroke="currentColor" stroke-width="1.2"/>
<path d="M4 12.7998H6.52821C7.25235 12.7998 7.61441 12.7998 7.93268 12.9462C8.25094 13.0926 8.48657 13.3675 8.95783 13.9173L9.44217 14.4823C9.91343 15.0321 10.1491 15.307 10.4673 15.4534C10.7856 15.5998 11.1477 15.5998 11.8718 15.5998H12.1282C12.8523 15.5998 13.2144 15.5998 13.5327 15.4534C13.8509 15.307 14.0866 15.0321 14.5578 14.4823L15.0422 13.9173C15.5134 13.3675 15.7491 13.0926 16.0673 12.9462C16.3856 12.7998 16.7477 12.7998 17.4718 12.7998H20" stroke="currentColor" stroke-width="1.2" stroke-linecap="round"/>
<path d="M8.7998 8H15.1998" stroke="currentColor" stroke-width="1.2" stroke-linecap="round"/>
<path d="M10.4004 10.7998H13.6004" stroke="currentColor" stroke-width="1.2" stroke-linecap="round"/>
</svg>
