<svg width="24" height="24" viewBox="0 0 24 24" fill="none" xmlns="http://www.w3.org/2000/svg">
<path fill-rule="evenodd" clip-rule="evenodd" d="M13.0691 3.40002H14.9307C15.8866 3.40002 16.6467 3.40001 17.2564 3.45798C17.8815 3.51741 18.41 3.642 18.8809 3.93052C19.3653 4.22736 19.7725 4.63464 20.0694 5.11904C20.3579 5.58986 20.4825 6.11839 20.5419 6.7435C20.5999 7.35315 20.5999 8.11332 20.5999 9.06925V9.72184C20.5999 10.4023 20.5999 10.9435 20.5699 11.3824C20.5393 11.8313 20.4753 12.2168 20.3258 12.5777C19.9604 13.4598 19.2596 14.1607 18.3775 14.526C18.0742 14.6517 17.7509 14.7176 17.3846 14.7535C17.3803 14.865 17.3749 14.971 17.3681 15.0718C17.3355 15.5486 17.2678 15.9549 17.1106 16.3343C16.725 17.2654 15.9852 18.0051 15.0541 18.3908C14.5766 18.5886 14.0499 18.6465 13.3876 18.6677C13.0313 18.6791 12.8035 18.687 12.6304 18.7081C12.4668 18.728 12.4054 18.7547 12.3723 18.7743C12.3354 18.7961 12.2845 18.8361 12.1957 18.9584C12.0998 19.0904 11.9912 19.2726 11.8192 19.5632L11.6117 19.9138C11.0701 20.8288 9.72964 20.8288 9.18809 19.9138L8.98054 19.5632C8.80856 19.2726 8.69999 19.0904 8.60409 18.9584C8.51532 18.8361 8.46441 18.7961 8.42753 18.7743C8.39434 18.7547 8.33295 18.728 8.16936 18.7081C7.99632 18.687 7.76852 18.6791 7.41217 18.6677C6.74986 18.6465 6.22319 18.5886 5.7457 18.3908C4.8146 18.0051 4.07484 17.2654 3.68916 16.3343C3.53204 15.9549 3.46428 15.5486 3.43174 15.0718C3.3999 14.6051 3.3999 14.0289 3.3999 13.302V12.6091C3.3999 11.5878 3.39989 10.7786 3.46154 10.1302C3.52466 9.46633 3.65661 8.90941 3.95987 8.41454C4.2732 7.90323 4.7031 7.47333 5.21441 7.15999C5.70928 6.85674 6.2662 6.72478 6.93005 6.66166C7.09881 6.64562 7.27846 6.63375 7.46991 6.62497C7.53393 6.0491 7.66157 5.55766 7.93036 5.11904C8.2272 4.63464 8.63446 4.22736 9.11886 3.93052C9.58969 3.642 10.1182 3.51741 10.7433 3.45798C11.353 3.40001 12.1131 3.40002 13.0691 3.40002ZM8.68255 6.60098C8.91198 6.60002 9.15385 6.60002 9.40894 6.60002H11.3909C12.4121 6.60002 13.2214 6.60001 13.8698 6.66166C14.5336 6.72478 15.0905 6.85674 15.5854 7.15999C16.0967 7.47333 16.5266 7.90323 16.8399 8.41454C17.1432 8.90941 17.2751 9.46633 17.3383 10.1302C17.3999 10.7786 17.3999 11.5878 17.3999 12.6091V13.302C17.3999 13.3846 17.3999 13.4653 17.3999 13.5441C17.6202 13.5156 17.7809 13.4743 17.9183 13.4174C18.5064 13.1738 18.9736 12.7066 19.2172 12.1185C19.296 11.9281 19.3462 11.6885 19.3727 11.3007C19.3995 10.9075 19.3999 10.4072 19.3999 9.70005V9.10005C19.3999 8.1064 19.3992 7.40329 19.3473 6.85709C19.2962 6.31981 19.1998 5.99662 19.0462 5.74603C18.8483 5.4231 18.5768 5.15158 18.2539 4.95369C18.0033 4.80013 17.6801 4.70368 17.1428 4.65259C16.5966 4.60066 15.8935 4.60002 14.8999 4.60002H13.0999C12.1062 4.60002 11.4031 4.60066 10.8569 4.65259C10.3196 4.70368 9.99645 4.80013 9.74586 4.95369C9.42293 5.15158 9.15142 5.4231 8.95352 5.74603C8.82507 5.95564 8.73774 6.21352 8.68255 6.60098ZM7.04364 7.85628C6.46762 7.91104 6.11604 8.01487 5.84141 8.18316C5.49156 8.39755 5.19742 8.69169 4.98304 9.04153C4.81474 9.31617 4.71092 9.66775 4.65615 10.2438C4.60054 10.8287 4.5999 11.5809 4.5999 12.64V13.2801C4.5999 14.0338 4.60023 14.569 4.62896 14.9901C4.65732 15.4058 4.71135 15.6663 4.79782 15.875C5.0617 16.5121 5.56785 17.0183 6.20493 17.2822C6.47227 17.3929 6.81672 17.4481 7.45053 17.4683L7.47541 17.4691C7.79973 17.4795 8.08182 17.4885 8.31466 17.5169C8.56287 17.5472 8.80673 17.6044 9.03848 17.7415C9.26652 17.8764 9.43124 18.0552 9.57501 18.2532C9.70801 18.4363 9.84505 18.6678 10.0004 18.9303L10.2208 19.3026C10.2571 19.364 10.3205 19.4 10.3999 19.4C10.4793 19.4 10.5427 19.364 10.579 19.3026L10.7994 18.9303C10.9547 18.6678 11.0918 18.4363 11.2248 18.2531C11.3685 18.0552 11.5333 17.8764 11.7613 17.7415C11.993 17.6044 12.2369 17.5472 12.4851 17.5169C12.718 17.4885 13 17.4795 13.3244 17.4691L13.3493 17.4683C13.9831 17.4481 14.3275 17.3929 14.5949 17.2822C15.232 17.0183 15.7381 16.5121 16.002 15.875C16.0885 15.6663 16.1425 15.4058 16.1708 14.9901C16.1996 14.569 16.1999 14.0338 16.1999 13.2801V12.64C16.1999 11.5809 16.1993 10.8287 16.1437 10.2438C16.0889 9.66775 15.9851 9.31617 15.8168 9.04153C15.6024 8.69169 15.3082 8.39755 14.9584 8.18316C14.6838 8.01487 14.3322 7.91104 13.7562 7.85628C13.1712 7.80066 12.419 7.80002 11.3599 7.80002H9.4399C8.38079 7.80002 7.62858 7.80066 7.04364 7.85628Z" fill="#9E9E9E"/>
<path d="M8.3999 12.8C8.3999 13.2419 8.04173 13.6 7.5999 13.6C7.15807 13.6 6.7999 13.2419 6.7999 12.8C6.7999 12.3582 7.15807 12 7.5999 12C8.04173 12 8.3999 12.3582 8.3999 12.8Z" fill="#9E9E9E"/>
<path d="M11.1999 12.8C11.1999 13.2419 10.8417 13.6 10.3999 13.6C9.95808 13.6 9.5999 13.2419 9.5999 12.8C9.5999 12.3582 9.95808 12 10.3999 12C10.8417 12 11.1999 12.3582 11.1999 12.8Z" fill="#9E9E9E"/>
<path d="M13.9999 12.8C13.9999 13.2419 13.6417 13.6 13.1999 13.6C12.7581 13.6 12.3999 13.2419 12.3999 12.8C12.3999 12.3582 12.7581 12 13.1999 12C13.6417 12 13.9999 12.3582 13.9999 12.8Z" fill="#9E9E9E"/>
</svg>
