<svg viewBox="0 0 24 24" fill="none" xmlns="http://www.w3.org/2000/svg">
<path d="M7.2002 11.2C7.2002 8.93728 7.2002 7.80591 7.90314 7.10297C8.60608 6.40002 9.73745 6.40002 12.0002 6.40002H14.4002C16.6629 6.40002 17.7943 6.40002 18.4973 7.10297C19.2002 7.80591 19.2002 8.93728 19.2002 11.2V15.2C19.2002 17.4628 19.2002 18.5941 18.4973 19.2971C17.7943 20 16.6629 20 14.4002 20H12.0002C9.73745 20 8.60608 20 7.90314 19.2971C7.2002 18.5941 7.2002 17.4628 7.2002 15.2V11.2Z" stroke="currentColor" stroke-width="1.2"/>
<path d="M7.1998 17.6C5.87432 17.6 4.7998 16.5255 4.7998 15.2V10.4C4.7998 7.38301 4.7998 5.87452 5.73706 4.93726C6.67432 4 8.18282 4 11.1998 4H14.3998C15.7253 4 16.7998 5.07452 16.7998 6.4" stroke="currentColor" stroke-width="1.2"/>
</svg>
