<svg viewBox="0 0 24 24" fill="none" xmlns="http://www.w3.org/2000/svg">
<path d="M4 16.4004C4 15.6527 4 15.2789 4.16077 15.0004C4.26609 14.818 4.41758 14.6665 4.6 14.5612C4.87846 14.4004 5.25231 14.4004 6 14.4004C6.74769 14.4004 7.12154 14.4004 7.4 14.5612C7.58242 14.6665 7.73391 14.818 7.83923 15.0004C8 15.2789 8 15.6527 8 16.4004C8 17.1481 8 17.5219 7.83923 17.8004C7.73391 17.9828 7.58242 18.1343 7.4 18.2396C7.12154 18.4004 6.74769 18.4004 6 18.4004C5.25231 18.4004 4.87846 18.4004 4.6 18.2396C4.41758 18.1343 4.26609 17.9828 4.16077 17.8004C4 17.5219 4 17.1481 4 16.4004Z" stroke="currentColor" stroke-width="1.2"/>
<path d="M10 16.4004C10 15.6527 10 15.2789 10.1608 15.0004C10.2661 14.818 10.4176 14.6665 10.6 14.5612C10.8785 14.4004 11.2523 14.4004 12 14.4004C12.7477 14.4004 13.1215 14.4004 13.4 14.5612C13.5824 14.6665 13.7339 14.818 13.8392 15.0004C14 15.2789 14 15.6527 14 16.4004C14 17.1481 14 17.5219 13.8392 17.8004C13.7339 17.9828 13.5824 18.1343 13.4 18.2396C13.1215 18.4004 12.7477 18.4004 12 18.4004C11.2523 18.4004 10.8785 18.4004 10.6 18.2396C10.4176 18.1343 10.2661 17.9828 10.1608 17.8004C10 17.5219 10 17.1481 10 16.4004Z" stroke="currentColor" stroke-width="1.2"/>
<path d="M16 16.4004C16 15.6527 16 15.2789 16.1608 15.0004C16.2661 14.818 16.4176 14.6665 16.6 14.5612C16.8785 14.4004 17.2523 14.4004 18 14.4004C18.7477 14.4004 19.1215 14.4004 19.4 14.5612C19.5824 14.6665 19.7339 14.818 19.8392 15.0004C20 15.2789 20 15.6527 20 16.4004C20 17.1481 20 17.5219 19.8392 17.8004C19.7339 17.9828 19.5824 18.1343 19.4 18.2396C19.1215 18.4004 18.7477 18.4004 18 18.4004C17.2523 18.4004 16.8785 18.4004 16.6 18.2396C16.4176 18.1343 16.2661 17.9828 16.1608 17.8004C16 17.5219 16 17.1481 16 16.4004Z" stroke="currentColor" stroke-width="1.2"/>
<path d="M6 14.3996V9.59961C6 7.71399 6 6.77118 6.58579 6.1854C7.17157 5.59961 8.11438 5.59961 10 5.59961H14C15.8856 5.59961 16.8284 5.59961 17.4142 6.1854C18 6.77118 18 7.71399 18 9.59961V11.9996M18 11.9996L19.6 10.3996M18 11.9996L16.4 10.3996" stroke="currentColor" stroke-width="1.2" stroke-linecap="round" stroke-linejoin="round"/>
</svg>
