<svg viewBox="0 0 32 32" fill="none" xmlns="http://www.w3.org/2000/svg">
<path d="M11.1992 15.1999C11.1992 12.9372 11.1992 11.8058 11.9022 11.1028C12.6051 10.3999 13.7365 10.3999 15.9992 10.3999H18.3992C20.662 10.3999 21.7933 10.3999 22.4963 11.1028C23.1992 11.8058 23.1992 12.9372 23.1992 15.1999V19.1999C23.1992 21.4626 23.1992 22.594 22.4963 23.297C21.7933 23.9999 20.662 23.9999 18.3992 23.9999H15.9992C13.7365 23.9999 12.6051 23.9999 11.9022 23.297C11.1992 22.594 11.1992 21.4626 11.1992 19.1999V15.1999Z" stroke="currentColor" stroke-width="1.2"/>
<path d="M11.2008 21.6C9.8753 21.6 8.80078 20.5255 8.80078 19.2V14.4C8.80078 11.383 8.80078 9.87452 9.73804 8.93726C10.6753 8 12.1838 8 15.2008 8H18.4008C19.7263 8 20.8008 9.07452 20.8008 10.4" stroke="currentColor" stroke-width="1.2"/>
</svg>
