<svg viewBox="0 0 24 24" fill="none" xmlns="http://www.w3.org/2000/svg">
<path d="M4 12C4 8.98299 4 7.47449 4.93726 6.53723C5.87452 5.59998 7.38301 5.59998 10.4 5.59998H13.6C16.617 5.59998 18.1255 5.59998 19.0627 6.53723C20 7.47449 20 8.98299 20 12V13.6C20 16.617 20 18.1255 19.0627 19.0627C18.1255 20 16.617 20 13.6 20H10.4C7.38301 20 5.87452 20 4.93726 19.0627C4 18.1255 4 16.617 4 13.6V12Z" stroke="currentColor" stroke-width="1.2"/>
<path d="M8 5.60002V4.40002" stroke="currentColor" stroke-width="1.2" stroke-linecap="round"/>
<path d="M16 5.60002V4.40002" stroke="currentColor" stroke-width="1.2" stroke-linecap="round"/>
<path d="M4.3999 9.59998H19.5999" stroke="currentColor" stroke-width="1.2" stroke-linecap="round"/>
<path d="M16.8 16C16.8 16.4418 16.4418 16.8 16 16.8C15.5581 16.8 15.2 16.4418 15.2 16C15.2 15.5582 15.5581 15.2 16 15.2C16.4418 15.2 16.8 15.5582 16.8 16Z" fill="currentColor"/>
<path d="M16.8 12.8C16.8 13.2418 16.4418 13.6 16 13.6C15.5581 13.6 15.2 13.2418 15.2 12.8C15.2 12.3582 15.5581 12 16 12C16.4418 12 16.8 12.3582 16.8 12.8Z" fill="currentColor"/>
<path d="M12.8 16C12.8 16.4418 12.4418 16.8 12 16.8C11.5581 16.8 11.2 16.4418 11.2 16C11.2 15.5582 11.5581 15.2 12 15.2C12.4418 15.2 12.8 15.5582 12.8 16Z" fill="currentColor"/>
<path d="M12.8 12.8C12.8 13.2418 12.4418 13.6 12 13.6C11.5581 13.6 11.2 13.2418 11.2 12.8C11.2 12.3582 11.5581 12 12 12C12.4418 12 12.8 12.3582 12.8 12.8Z" fill="currentColor"/>
<path d="M8.79995 16C8.79995 16.4418 8.44178 16.8 7.99995 16.8C7.55812 16.8 7.19995 16.4418 7.19995 16C7.19995 15.5582 7.55812 15.2 7.99995 15.2C8.44178 15.2 8.79995 15.5582 8.79995 16Z" fill="currentColor"/>
<path d="M8.79995 12.8C8.79995 13.2418 8.44178 13.6 7.99995 13.6C7.55812 13.6 7.19995 13.2418 7.19995 12.8C7.19995 12.3582 7.55812 12 7.99995 12C8.44178 12 8.79995 12.3582 8.79995 12.8Z" fill="currentColor"/>
</svg>
