<svg viewBox="0 0 32 33" fill="none" xmlns="http://www.w3.org/2000/svg">
    <path d="M17.8881 10.1629L18.6296 9.42142C19.8581 8.19286 21.85 8.19286 23.0786 9.42142C24.3071 10.65 24.3071 12.6419 23.0786 13.8704L22.3371 14.6119M17.8881 10.1629C17.8881 10.1629 17.9807 11.7386 19.3711 13.1289C20.7614 14.5193 22.3371 14.6119 22.3371 14.6119M17.8881 10.1629L11.0711 16.9799C10.6093 17.4416 10.3785 17.6725 10.1799 17.9271C9.94571 18.2273 9.74491 18.5522 9.58107 18.896C9.44219 19.1874 9.33894 19.4972 9.13245 20.1167L8.25745 22.7417M22.3371 14.6119L15.5201 21.4289C15.0584 21.8907 14.8275 22.1215 14.5729 22.3201C14.2727 22.5543 13.9478 22.7551 13.604 22.9189C13.3126 23.0578 13.0028 23.1611 12.3833 23.3676L9.75834 24.2426M9.75834 24.2426L9.11667 24.4564C8.81182 24.5581 8.47573 24.4787 8.2485 24.2515C8.02128 24.0243 7.94194 23.6882 8.04356 23.3833L8.25745 22.7417M9.75834 24.2426L8.25745 22.7417"
          stroke="currentColor" stroke-width="1.2"/>
</svg>
