<svg viewBox="0 0 22 22" fill="none" xmlns="http://www.w3.org/2000/svg">
<path d="M10.0834 6.41683H11.9167V8.25016H10.0834V6.41683ZM10.0834 10.0835H11.9167V15.5835H10.0834V10.0835ZM11 1.8335C5.94004 1.8335 1.83337 5.94016 1.83337 11.0002C1.83337 16.0602 5.94004 20.1668 11 20.1668C16.06 20.1668 20.1667 16.0602 20.1667 11.0002C20.1667 5.94016 16.06 1.8335 11 1.8335ZM11 18.3335C6.95754 18.3335 3.66671 15.0427 3.66671 11.0002C3.66671 6.95766 6.95754 3.66683 11 3.66683C15.0425 3.66683 18.3334 6.95766 18.3334 11.0002C18.3334 15.0427 15.0425 18.3335 11 18.3335Z" fill="currentColor"/>
</svg>
