<svg  viewBox="0 0 299 36" fill="none" xmlns="http://www.w3.org/2000/svg">
<path d="M15.7798 29L14.4226 24.272H7.38281L6.01065 29H0.432528L7.66619 7.47798H14.3629L21.5966 29H15.7798ZM10.843 12.0419L8.44176 20.3345H13.3487L10.9624 12.0419H10.843ZM28.517 29.2386C26.4986 29.2386 24.9126 28.4979 23.7592 27.0163C22.6158 25.5249 22.044 23.4666 22.044 20.8416C22.044 18.2464 22.6257 16.2131 23.7891 14.7415C24.9524 13.2599 26.5483 12.5192 28.5767 12.5192C29.7301 12.5192 30.7344 12.8026 31.5895 13.3693C32.4545 13.9361 33.071 14.6868 33.4389 15.6214H33.5433V7.47798H38.8232V29H33.5732V26.2109H33.4687C33.1307 27.0959 32.5142 27.8217 31.6193 28.3885C30.7344 28.9553 29.7003 29.2386 28.517 29.2386ZM32.7379 17.799C32.1911 17.0334 31.4453 16.6506 30.5007 16.6506C29.5561 16.6506 28.8104 17.0284 28.2635 17.7841C27.7266 18.5398 27.4581 19.5739 27.4581 20.8864C27.4581 22.1989 27.7266 23.233 28.2635 23.9886C28.8004 24.7344 29.5462 25.1072 30.5007 25.1072C31.4553 25.1072 32.201 24.7344 32.7379 23.9886C33.2848 23.2429 33.5582 22.2088 33.5582 20.8864C33.5582 19.5838 33.2848 18.5547 32.7379 17.799ZM52.2315 29H46.7727V11.8928H40.8366V7.47798H58.1676V11.8928H52.2315V29ZM63.3878 25.5994C64.2131 25.5994 64.919 25.3707 65.5057 24.9134C66.1023 24.456 66.4006 23.8743 66.4006 23.1683V22.0497L63.4474 22.2436C62.7614 22.2933 62.2294 22.4723 61.8516 22.7805C61.4737 23.0788 61.2848 23.4666 61.2848 23.9439C61.2848 24.451 61.4737 24.8537 61.8516 25.152C62.2393 25.4503 62.7514 25.5994 63.3878 25.5994ZM61.5085 29.2386C59.9773 29.2386 58.6847 28.7763 57.6307 27.8516C56.5767 26.9268 56.0497 25.7436 56.0497 24.3018C56.0497 22.7905 56.6115 21.6122 57.7351 20.767C58.8587 19.9219 60.4794 19.4347 62.5973 19.3054L66.4006 19.0817V18.157C66.4006 17.5206 66.1918 17.0284 65.7741 16.6804C65.3565 16.3224 64.7947 16.1435 64.0888 16.1435C63.3928 16.1435 62.821 16.3075 62.3736 16.6357C61.9361 16.9538 61.6776 17.3714 61.598 17.8885H56.8402C56.9197 16.2081 57.6307 14.8707 58.973 13.8764C60.3153 12.8722 62.1101 12.37 64.3572 12.37C66.5249 12.37 68.2699 12.8771 69.5923 13.8913C70.9148 14.8956 71.576 16.218 71.576 17.8587V29H66.4304V26.6882H66.326C65.8984 27.4837 65.2422 28.1101 64.3572 28.5675C63.4723 29.0149 62.5227 29.2386 61.5085 29.2386ZM74.1115 29V12.7578H79.2571V15.8303H79.3615C79.9581 13.6229 81.2308 12.5192 83.1797 12.5192C83.7067 12.5192 84.1541 12.5888 84.522 12.728V17.2322C84.0249 17.0334 83.4631 16.9339 82.8366 16.9339C81.723 16.9339 80.8729 17.2372 80.2862 17.8438C79.6996 18.4503 79.4062 19.3203 79.4062 20.4538V29H74.1115ZM93.6797 24.9581C94.6342 24.9581 95.38 24.6051 95.9169 23.8991C96.4638 23.1832 96.7372 22.174 96.7372 20.8714C96.7372 19.5788 96.4638 18.5547 95.9169 17.799C95.37 17.0334 94.6243 16.6506 93.6797 16.6506C92.7351 16.6506 91.9893 17.0284 91.4425 17.7841C90.9055 18.5398 90.6371 19.5689 90.6371 20.8714C90.6371 22.174 90.9006 23.1832 91.4276 23.8991C91.9645 24.6051 92.7152 24.9581 93.6797 24.9581ZM93.5156 35.1151C91.2386 35.1151 89.3942 34.6477 87.9822 33.7131C86.5803 32.7784 85.8047 31.5604 85.6555 30.0589H90.7713C90.9006 30.5362 91.2237 30.919 91.7408 31.2074C92.2578 31.5057 92.8892 31.6548 93.6349 31.6548C94.6293 31.6548 95.3899 31.4112 95.9169 30.924C96.4538 30.4368 96.7223 29.7805 96.7223 28.9553V25.9723H96.6179C96.2898 26.8374 95.6783 27.5384 94.7834 28.0753C93.8984 28.6023 92.8643 28.8658 91.6811 28.8658C89.7124 28.8658 88.1413 28.1548 86.968 26.733C85.8047 25.3111 85.223 23.3423 85.223 20.8267C85.223 18.2315 85.7997 16.1982 86.9531 14.7266C88.1165 13.255 89.7173 12.5192 91.7557 12.5192C92.9091 12.5192 93.9183 12.8075 94.7834 13.3842C95.6484 13.951 96.2699 14.7017 96.6477 15.6364H96.7521V12.7578H102.002V28.821C102.002 30.7401 101.222 32.2663 99.6605 33.3999C98.1094 34.5433 96.0611 35.1151 93.5156 35.1151ZM112.249 16.1286C111.443 16.1286 110.762 16.402 110.205 16.9489C109.658 17.4858 109.35 18.1768 109.281 19.022H115.187C115.137 18.157 114.844 17.4609 114.307 16.9339C113.77 16.397 113.084 16.1286 112.249 16.1286ZM115.306 23.8693H120.079C119.82 25.5497 118.995 26.892 117.603 27.8963C116.211 28.8906 114.456 29.3878 112.338 29.3878C109.753 29.3878 107.729 28.642 106.268 27.1506C104.806 25.6491 104.075 23.5859 104.075 20.9609C104.075 18.3359 104.801 16.2479 106.253 14.6967C107.714 13.1456 109.683 12.37 112.159 12.37C114.605 12.37 116.549 13.1108 117.991 14.5923C119.442 16.0739 120.168 18.0575 120.168 20.5433V22.0348H109.206V22.3629C109.206 23.3374 109.499 24.1278 110.086 24.7344C110.683 25.3409 111.458 25.6442 112.413 25.6442C113.119 25.6442 113.73 25.4851 114.247 25.1669C114.764 24.8487 115.117 24.4162 115.306 23.8693ZM123.554 9.11861H128.849V12.7578H131.772V16.6506H128.849V23.4666C128.849 24.5902 129.47 25.152 130.713 25.152C131.151 25.152 131.499 25.1271 131.757 25.0774V28.8359C131.131 28.9652 130.36 29.0298 129.445 29.0298C127.337 29.0298 125.826 28.6818 124.911 27.9858C124.006 27.2898 123.554 26.1413 123.554 24.5405V16.6506H121.347V12.7578H123.554V9.11861Z" fill="#2D2D2D"/>
<path d="M158.251 29H153.433V15.5618H153.329L148.004 28.7763H144.872L139.562 15.5618H139.443V29H134.626V7.47798H140.95L146.379 21.304H146.498L151.927 7.47798H158.251V29ZM167.572 25.5994C168.398 25.5994 169.104 25.3707 169.69 24.9134C170.287 24.456 170.585 23.8743 170.585 23.1683V22.0497L167.632 22.2436C166.946 22.2933 166.414 22.4723 166.036 22.7805C165.658 23.0788 165.469 23.4666 165.469 23.9439C165.469 24.451 165.658 24.8537 166.036 25.152C166.424 25.4503 166.936 25.5994 167.572 25.5994ZM165.693 29.2386C164.162 29.2386 162.869 28.7763 161.815 27.8516C160.761 26.9268 160.234 25.7436 160.234 24.3018C160.234 22.7905 160.796 21.6122 161.92 20.767C163.043 19.9219 164.664 19.4347 166.782 19.3054L170.585 19.0817V18.157C170.585 17.5206 170.376 17.0284 169.959 16.6804C169.541 16.3224 168.979 16.1435 168.273 16.1435C167.577 16.1435 167.006 16.3075 166.558 16.6357C166.121 16.9538 165.862 17.3714 165.783 17.8885H161.025C161.104 16.2081 161.815 14.8707 163.158 13.8764C164.5 12.8722 166.295 12.37 168.542 12.37C170.71 12.37 172.455 12.8771 173.777 13.8913C175.099 14.8956 175.761 16.218 175.761 17.8587V29H170.615V26.6882H170.511C170.083 27.4837 169.427 28.1101 168.542 28.5675C167.657 29.0149 166.707 29.2386 165.693 29.2386ZM178.296 29V12.7578H183.442V15.8303H183.546C184.143 13.6229 185.415 12.5192 187.364 12.5192C187.891 12.5192 188.339 12.5888 188.707 12.728V17.2322C188.21 17.0334 187.648 16.9339 187.021 16.9339C185.908 16.9339 185.058 17.2372 184.471 17.8438C183.884 18.4503 183.591 19.3203 183.591 20.4538V29H178.296ZM195.791 18.9325L200.46 12.7578H206.351L200.579 19.7081L206.694 29H200.609L196.656 22.87L195.702 24.0185V29H190.407V7.47798H195.702V18.9325H195.791ZM214.524 16.1286C213.719 16.1286 213.038 16.402 212.481 16.9489C211.934 17.4858 211.626 18.1768 211.556 19.022H217.462C217.413 18.157 217.119 17.4609 216.582 16.9339C216.045 16.397 215.359 16.1286 214.524 16.1286ZM217.582 23.8693H222.354C222.096 25.5497 221.271 26.892 219.879 27.8963C218.487 28.8906 216.732 29.3878 214.614 29.3878C212.028 29.3878 210.005 28.642 208.543 27.1506C207.082 25.6491 206.351 23.5859 206.351 20.9609C206.351 18.3359 207.077 16.2479 208.528 14.6967C209.99 13.1456 211.959 12.37 214.435 12.37C216.881 12.37 218.825 13.1108 220.266 14.5923C221.718 16.0739 222.444 18.0575 222.444 20.5433V22.0348H211.482V22.3629C211.482 23.3374 211.775 24.1278 212.362 24.7344C212.958 25.3409 213.734 25.6442 214.688 25.6442C215.394 25.6442 216.006 25.4851 216.523 25.1669C217.04 24.8487 217.393 24.4162 217.582 23.8693ZM225.83 9.11861H231.124V12.7578H234.048V16.6506H231.124V23.4666C231.124 24.5902 231.746 25.152 232.989 25.152C233.426 25.152 233.774 25.1271 234.033 25.0774V28.8359C233.406 28.9652 232.636 29.0298 231.721 29.0298C229.613 29.0298 228.102 28.6818 227.187 27.9858C226.282 27.2898 225.83 26.1413 225.83 24.5405V16.6506H223.622V12.7578H225.83V9.11861ZM250.006 27.1506C248.525 28.642 246.496 29.3878 243.921 29.3878C241.346 29.3878 239.317 28.642 237.836 27.1506C236.354 25.6491 235.614 23.5561 235.614 20.8714C235.614 18.2365 236.364 16.1634 237.866 14.652C239.367 13.1307 241.386 12.37 243.921 12.37C246.477 12.37 248.5 13.1257 249.991 14.6371C251.483 16.1484 252.229 18.2266 252.229 20.8714C252.229 23.5661 251.488 25.6591 250.006 27.1506ZM241.759 24.3018C242.286 25.1072 243.006 25.5099 243.921 25.5099C244.836 25.5099 245.557 25.1072 246.084 24.3018C246.611 23.4964 246.874 22.358 246.874 20.8864C246.874 19.4347 246.606 18.3011 246.069 17.4858C245.542 16.6605 244.826 16.2479 243.921 16.2479C243.016 16.2479 242.3 16.6605 241.773 17.4858C241.246 18.3011 240.983 19.4347 240.983 20.8864C240.983 22.358 241.241 23.4964 241.759 24.3018ZM254.362 29V7.47798H259.656V29H254.362ZM276.197 27.1506C274.715 28.642 272.687 29.3878 270.112 29.3878C267.536 29.3878 265.508 28.642 264.026 27.1506C262.545 25.6491 261.804 23.5561 261.804 20.8714C261.804 18.2365 262.555 16.1634 264.056 14.652C265.558 13.1307 267.576 12.37 270.112 12.37C272.667 12.37 274.69 13.1257 276.182 14.6371C277.673 16.1484 278.419 18.2266 278.419 20.8714C278.419 23.5661 277.678 25.6591 276.197 27.1506ZM267.949 24.3018C268.476 25.1072 269.197 25.5099 270.112 25.5099C271.026 25.5099 271.747 25.1072 272.274 24.3018C272.801 23.4964 273.065 22.358 273.065 20.8864C273.065 19.4347 272.796 18.3011 272.259 17.4858C271.732 16.6605 271.016 16.2479 270.112 16.2479C269.207 16.2479 268.491 16.6605 267.964 17.4858C267.437 18.3011 267.173 19.4347 267.173 20.8864C267.173 22.358 267.432 23.4964 267.949 24.3018ZM288.427 24.9581C289.381 24.9581 290.127 24.6051 290.664 23.8991C291.211 23.1832 291.484 22.174 291.484 20.8714C291.484 19.5788 291.211 18.5547 290.664 17.799C290.117 17.0334 289.371 16.6506 288.427 16.6506C287.482 16.6506 286.736 17.0284 286.19 17.7841C285.653 18.5398 285.384 19.5689 285.384 20.8714C285.384 22.174 285.648 23.1832 286.175 23.8991C286.712 24.6051 287.462 24.9581 288.427 24.9581ZM288.263 35.1151C285.986 35.1151 284.141 34.6477 282.729 33.7131C281.327 32.7784 280.552 31.5604 280.403 30.0589H285.518C285.648 30.5362 285.971 30.919 286.488 31.2074C287.005 31.5057 287.636 31.6548 288.382 31.6548C289.376 31.6548 290.137 31.4112 290.664 30.924C291.201 30.4368 291.469 29.7805 291.469 28.9553V25.9723H291.365C291.037 26.8374 290.425 27.5384 289.531 28.0753C288.646 28.6023 287.611 28.8658 286.428 28.8658C284.46 28.8658 282.888 28.1548 281.715 26.733C280.552 25.3111 279.97 23.3423 279.97 20.8267C279.97 18.2315 280.547 16.1982 281.7 14.7266C282.864 13.255 284.464 12.5192 286.503 12.5192C287.656 12.5192 288.665 12.8075 289.531 13.3842C290.396 13.951 291.017 14.7017 291.395 15.6364H291.499V12.7578H296.749V28.821C296.749 30.7401 295.969 32.2663 294.408 33.3999C292.857 34.5433 290.808 35.1151 288.263 35.1151Z" fill="#2196F3"/>
</svg>
