<svg  viewBox="0 0 30 30" fill="none" xmlns="http://www.w3.org/2000/svg">
<path d="M23.5001 9H6.5" stroke="currentColor" stroke-width="1.5" stroke-linecap="round"/>
<path d="M21.8337 11.5L21.3737 18.3991C21.1967 21.054 21.1082 22.3815 20.2432 23.1907C19.3782 24 18.0478 24 15.387 24H14.6136C11.9528 24 10.6224 24 9.75743 23.1907C8.89242 22.3815 8.80393 21.054 8.62693 18.3991L8.16699 11.5" stroke="currentColor" stroke-width="1.5" stroke-linecap="round"/>
<path d="M12.5 14L13 19" stroke="currentColor" stroke-width="1.5" stroke-linecap="round"/>
<path d="M17.5 14L17 19" stroke="currentColor" stroke-width="1.5" stroke-linecap="round"/>
<path d="M9.5 9C9.55588 9 9.58382 9 9.60915 8.99936C10.4326 8.97849 11.159 8.45491 11.4392 7.68032C11.4478 7.65649 11.4567 7.62999 11.4743 7.57697L11.5714 7.28571C11.6543 7.03708 11.6957 6.91276 11.7507 6.8072C11.97 6.38607 12.3757 6.09364 12.8446 6.01877C12.9621 6 13.0932 6 13.3553 6H16.6447C16.9068 6 17.0379 6 17.1554 6.01877C17.6243 6.09364 18.03 6.38607 18.2493 6.8072C18.3043 6.91276 18.3457 7.03708 18.4286 7.28571L18.5257 7.57697C18.5433 7.62992 18.5522 7.65651 18.5608 7.68032C18.841 8.45491 19.5674 8.97849 20.3909 8.99936C20.4162 9 20.4441 9 20.5 9" stroke="currentColor" stroke-width="1.5"/>
</svg>
