<svg viewBox="0 0 10 7" fill="none" xmlns="http://www.w3.org/2000/svg">
<path d="M4.15235 5.21282C4.9015 4.57943 5.99881 4.57959 6.74805 5.21282C6.78566 5.24682 6.80746 5.29498 6.8086 5.34563C6.80963 5.39643 6.79018 5.44579 6.75391 5.48138L5.58106 6.66497C5.54667 6.69975 5.49912 6.71966 5.4502 6.71966C5.40141 6.71958 5.35463 6.69964 5.32032 6.66497L4.14649 5.48138C4.11035 5.44578 4.09073 5.39635 4.0918 5.34563C4.09296 5.29497 4.11472 5.2468 4.15235 5.21282ZM2.58692 3.63372C4.20112 2.13295 6.70125 2.13291 8.31543 3.63372C8.35187 3.66892 8.37253 3.71784 8.37305 3.76849C8.37352 3.81891 8.35381 3.86739 8.31836 3.90325L7.63965 4.5888C7.56979 4.65857 7.4574 4.65967 7.38575 4.59173C6.85565 4.1119 6.16533 3.84657 5.4502 3.84661C4.73563 3.84697 4.04629 4.11227 3.5166 4.59173C3.44497 4.65971 3.33259 4.65854 3.2627 4.5888L2.58399 3.90325C2.54848 3.86744 2.52886 3.81892 2.5293 3.76849C2.52978 3.71782 2.55045 3.66892 2.58692 3.63372ZM1.02149 2.0595C3.4973 -0.31217 7.40307 -0.312133 9.87891 2.0595C9.91475 2.09474 9.93526 2.14304 9.93555 2.19329C9.93582 2.24339 9.91611 2.29147 9.88086 2.32708L9.20117 3.01263C9.13125 3.08251 9.0182 3.0835 8.94727 3.01458C8.00397 2.11811 6.75177 1.61815 5.4502 1.6181C4.14859 1.61816 2.89649 2.11811 1.95313 3.01458C1.88222 3.08357 1.76908 3.08266 1.69922 3.01263L1.01953 2.32708C0.984299 2.29145 0.964553 2.24339 0.964847 2.19329C0.965178 2.14304 0.985623 2.09471 1.02149 2.0595Z" fill="currentColor"/>
</svg>
