<svg width="24" height="24" viewBox="0 0 24 24" fill="none" xmlns="http://www.w3.org/2000/svg">
<path fill-rule="evenodd" clip-rule="evenodd" d="M16.1646 3.88495C15.3144 3.55 14.4927 3.77675 13.9111 4.29403C13.3438 4.79859 12.9999 5.57592 12.9999 6.40002V9.60002C12.9999 10.3732 13.6267 11 14.3999 11H17.5999C18.424 11 19.2013 10.6561 19.7059 10.0888C20.2232 9.5072 20.4499 8.68552 20.115 7.8353C19.4045 6.03193 17.968 4.59538 16.1646 3.88495ZM14.1999 9.60002V6.40002C14.1999 5.89865 14.4118 5.45464 14.7086 5.1907C14.9911 4.93948 15.3418 4.85055 15.7248 5.00144C17.2185 5.5899 18.41 6.78139 18.9985 8.27513C19.1494 8.65814 19.0604 9.00887 18.8092 9.29134C18.5453 9.58811 18.1013 9.80002 17.5999 9.80002H14.3999C14.2894 9.80002 14.1999 9.71048 14.1999 9.60002Z" fill="#9E9E9E"/>
<path fill-rule="evenodd" clip-rule="evenodd" d="M11.1961 4.69597C10.7077 4.37955 10.2352 4.28846 9.71646 4.37892C9.2759 4.45574 8.80433 4.66707 8.30243 4.89199L8.24835 4.91622C7.83087 5.10318 7.42795 5.32557 7.04423 5.58196C5.69575 6.48299 4.64473 7.76365 4.02409 9.26201C3.40346 10.7604 3.24107 12.4091 3.55747 13.9998C3.87387 15.5904 4.65484 17.0515 5.80163 18.1983C6.94842 19.3451 8.40952 20.1261 10.0002 20.4425C11.5908 20.7589 13.2396 20.5965 14.7379 19.9758C16.2363 19.3552 17.5169 18.3042 18.418 16.9557C18.6743 16.572 18.8967 16.1691 19.0837 15.7516L19.1079 15.6975C19.3329 15.1956 19.5442 14.724 19.621 14.2835C19.7115 13.7647 19.6204 13.2922 19.3039 12.8038C18.9628 12.2773 18.4958 12.02 17.9247 11.9034C17.4176 11.7999 16.7839 11.7999 16.0576 11.8L14.7999 11.8C14.0287 11.8 13.5106 11.7987 13.1242 11.7468C12.755 11.6972 12.5971 11.6114 12.4928 11.5071C12.3885 11.4029 12.3028 11.2449 12.2531 10.8757C12.2012 10.4893 12.1999 9.97122 12.1999 9.20001L12.1999 7.94227C12.2 7.21602 12.2 6.58236 12.0965 6.07525C11.9799 5.50413 11.7226 5.0371 11.1961 4.69597ZM8.73882 6.01141C9.31417 5.75375 9.64768 5.60902 9.92259 5.56108C10.1351 5.52403 10.302 5.54654 10.5436 5.70309C10.7471 5.83493 10.8548 5.9923 10.9208 6.31526C10.997 6.68884 10.9999 7.19876 10.9999 8.00001L10.9999 9.24161C10.9999 9.96038 10.9999 10.5598 11.0638 11.0356C11.1314 11.5378 11.2799 11.9913 11.6443 12.3556C12.0086 12.72 12.4621 12.8686 12.9643 12.9361C13.4401 13.0001 14.0395 13 14.7583 13L15.9999 13C16.8012 13 17.3111 13.0029 17.6847 13.0791C18.0076 13.1451 18.165 13.2528 18.2968 13.4563C18.4534 13.6979 18.4759 13.8648 18.4388 14.0773C18.3909 14.3522 18.2462 14.6857 17.9885 15.2611C17.8289 15.6175 17.6391 15.9614 17.4202 16.289C16.651 17.4401 15.5578 18.3374 14.2787 18.8672C12.9996 19.397 11.5921 19.5356 10.2343 19.2655C8.87641 18.9954 7.62913 18.3287 6.65016 17.3498C5.67119 16.3708 5.00451 15.1235 4.73441 13.7656C4.46431 12.4078 4.60294 11.0003 5.13275 9.72123C5.66256 8.44215 6.55977 7.3489 7.71091 6.57973C8.0385 6.36084 8.38244 6.17101 8.73882 6.01141Z" fill="#9E9E9E"/>
</svg>
