<svg width="24" height="24" viewBox="0 0 24 24" fill="none" xmlns="http://www.w3.org/2000/svg">
<path d="M12.5999 9.60002C12.5999 9.26865 12.3313 9.00002 11.9999 9.00002C11.6685 9.00002 11.3999 9.26865 11.3999 9.60002L11.3999 11.4H9.5999C9.26853 11.4 8.9999 11.6687 8.9999 12C8.9999 12.3314 9.26853 12.6 9.5999 12.6H11.3999V14.4C11.3999 14.7314 11.6685 15 11.9999 15C12.3313 15 12.5999 14.7314 12.5999 14.4V12.6H14.3999C14.7313 12.6 14.9999 12.3314 14.9999 12C14.9999 11.6687 14.7313 11.4 14.3999 11.4H12.5999V9.60002Z" fill="#2196F3"/>
<path fill-rule="evenodd" clip-rule="evenodd" d="M12.0458 3.40002H11.954C10.1073 3.40001 8.66005 3.40001 7.53087 3.55182C6.37508 3.70721 5.46306 4.03149 4.74721 4.74733C4.03136 5.46318 3.70709 6.3752 3.5517 7.53099C3.39988 8.66018 3.39989 10.1074 3.3999 11.9541V12.0459C3.39989 13.8926 3.39988 15.3399 3.5517 16.4691C3.70709 17.6249 4.03136 18.5369 4.74721 19.2527C5.46306 19.9686 6.37508 20.2928 7.53087 20.4482C8.66006 20.6 10.1073 20.6 11.954 20.6H12.0458C13.8925 20.6 15.3397 20.6 16.4689 20.4482C17.6247 20.2928 18.5367 19.9686 19.2526 19.2527C19.9684 18.5369 20.2927 17.6249 20.4481 16.4691C20.5999 15.3399 20.5999 13.8926 20.5999 12.0459V11.9541C20.5999 10.1074 20.5999 8.66018 20.4481 7.53099C20.2927 6.3752 19.9684 5.46318 19.2526 4.74733C18.5367 4.03149 17.6247 3.70721 16.4689 3.55182C15.3398 3.40001 13.8925 3.40001 12.0458 3.40002ZM5.59574 5.59586C6.05146 5.14014 6.66804 4.87862 7.69076 4.74112C8.73075 4.6013 10.0973 4.60003 11.9999 4.60003C13.9025 4.60003 15.2691 4.6013 16.309 4.74112C17.3318 4.87862 17.9483 5.14014 18.4041 5.59586C18.8598 6.05159 19.1213 6.66816 19.2588 7.69089C19.3986 8.73087 19.3999 10.0974 19.3999 12C19.3999 13.9026 19.3986 15.2692 19.2588 16.3092C19.1213 17.3319 18.8598 17.9485 18.4041 18.4042C17.9483 18.8599 17.3318 19.1214 16.309 19.2589C15.2691 19.3988 13.9025 19.4 11.9999 19.4C10.0973 19.4 8.73075 19.3988 7.69076 19.2589C6.66804 19.1214 6.05146 18.8599 5.59574 18.4042C5.14002 17.9485 4.8785 17.3319 4.741 16.3092C4.60118 15.2692 4.5999 13.9026 4.5999 12C4.5999 10.0974 4.60118 8.73087 4.741 7.69089C4.8785 6.66816 5.14002 6.05159 5.59574 5.59586Z" fill="#2196F3"/>
</svg>
