<svg  viewBox="0 0 10 7" fill="none" xmlns="http://www.w3.org/2000/svg">
<path d="M1.17188 4.30518C1.49559 4.30518 1.75879 4.57533 1.75879 4.90869V6.11572C1.75875 6.44905 1.49557 6.71924 1.17188 6.71924H0.585938C0.262339 6.71913 3.97143e-05 6.44898 0 6.11572V4.90869C0 4.5754 0.262315 4.30529 0.585938 4.30518H1.17188ZM3.90723 3.09717C4.23081 3.09717 4.49392 3.36751 4.49414 3.70068V6.11572C4.49404 6.449 4.23088 6.71924 3.90723 6.71924H3.32129C2.99772 6.71914 2.73545 6.44894 2.73535 6.11572V3.70068C2.73557 3.36757 2.99779 3.09727 3.32129 3.09717H3.90723ZM6.64258 1.68896C6.96621 1.68896 7.22936 1.95923 7.22949 2.29248V6.11572C7.22942 6.44903 6.96625 6.71924 6.64258 6.71924H6.05664C5.73304 6.71915 5.47077 6.44897 5.4707 6.11572V2.29248C5.47084 1.95929 5.73308 1.68905 6.05664 1.68896H6.64258ZM9.37793 0.280762C9.70161 0.280762 9.96479 0.550956 9.96484 0.884277V6.11572C9.96481 6.44906 9.70162 6.71924 9.37793 6.71924H8.79199C8.46836 6.71916 8.20609 6.44901 8.20605 6.11572V0.884277C8.2061 0.551003 8.46837 0.280838 8.79199 0.280762H9.37793Z" fill="currentColor"/>
</svg>
