<svg  viewBox="0 0 32 32" fill="none" xmlns="http://www.w3.org/2000/svg">
<path d="M22.7993 11.2002H9.19922" stroke="currentColor" stroke-width="1.2" stroke-linecap="round"/>
<path d="M21.4685 13.2002L21.1005 18.7195C20.9589 20.8434 20.8881 21.9054 20.1961 22.5528C19.5041 23.2002 18.4398 23.2002 16.3112 23.2002H15.6925C13.5638 23.2002 12.4995 23.2002 11.8075 22.5528C11.1155 21.9054 11.0447 20.8434 10.9031 18.7195L10.5352 13.2002" stroke="currentColor" stroke-width="1.2" stroke-linecap="round"/>
<path d="M14 15.2002L14.4 19.2002" stroke="currentColor" stroke-width="1.2" stroke-linecap="round"/>
<path d="M18.0016 15.2002L17.6016 19.2002" stroke="currentColor" stroke-width="1.2" stroke-linecap="round"/>
<path d="M11.6016 11.1998C11.6463 11.1998 11.6686 11.1998 11.6889 11.1993C12.3476 11.1826 12.9288 10.7637 13.1529 10.1441C13.1598 10.125 13.1669 10.1038 13.181 10.0614L13.2587 9.82838C13.325 9.62947 13.3582 9.53001 13.4021 9.44556C13.5776 9.10866 13.9022 8.87471 14.2772 8.81482C14.3713 8.7998 14.4761 8.7998 14.6858 8.7998H17.3174C17.527 8.7998 17.6319 8.7998 17.7259 8.81482C18.101 8.87471 18.4256 9.10866 18.601 9.44556C18.645 9.53001 18.6781 9.62947 18.7444 9.82838L18.8221 10.0614C18.8362 10.1037 18.8433 10.125 18.8502 10.1441C19.0743 10.7637 19.6555 11.1826 20.3142 11.1993C20.3345 11.1998 20.3569 11.1998 20.4016 11.1998" stroke="currentColor" stroke-width="1.2"/>
</svg>
