<svg width="25" height="24" viewBox="0 0 25 24"  xmlns="http://www.w3.org/2000/svg">
<path fill-rule="evenodd" clip-rule="evenodd" d="M11.6548 3.3999H13.3451C14.8153 3.39989 15.9798 3.39988 16.8912 3.52241C17.8291 3.64851 18.5883 3.91421 19.187 4.5129C19.7856 5.11159 20.0513 5.87075 20.1774 6.80868C20.3 7.72006 20.3 8.88456 20.3 10.3548V13.645C20.3 15.1152 20.3 16.2797 20.1774 17.1911C20.0513 18.1291 19.7856 18.8882 19.187 19.4869C18.5883 20.0856 17.8291 20.3513 16.8912 20.4774C15.9798 20.5999 14.8153 20.5999 13.3451 20.5999H11.6548C10.1846 20.5999 9.02011 20.5999 8.10873 20.4774C7.1708 20.3513 6.41164 20.0856 5.81295 19.4869C5.21426 18.8882 4.94856 18.1291 4.82246 17.1911C4.69993 16.2797 4.69994 15.1152 4.69995 13.645V10.3548C4.69994 8.88456 4.69993 7.72006 4.82246 6.80868C4.94856 5.87075 5.21426 5.11159 5.81295 4.5129C6.41164 3.91421 7.1708 3.64851 8.10873 3.52241C9.0201 3.39988 10.1846 3.39989 11.6548 3.3999ZM8.26863 4.71171C7.46376 4.81992 7.00004 5.02286 6.66147 5.36143C6.32291 5.69999 6.11997 6.16371 6.01176 6.96858C5.90123 7.79071 5.89995 8.87445 5.89995 10.3999V13.5999C5.89995 15.1254 5.90123 16.2091 6.01176 17.0312C6.11997 17.8361 6.32291 18.2998 6.66147 18.6384C7.00004 18.9769 7.46376 19.1799 8.26863 19.2881C9.09076 19.3986 10.1745 19.3999 11.7 19.3999H13.3C14.8254 19.3999 15.9091 19.3986 16.7313 19.2881C17.5361 19.1799 17.9999 18.9769 18.3384 18.6384C18.677 18.2998 18.8799 17.8361 18.9881 17.0312C19.0987 16.2091 19.1 15.1254 19.1 13.5999V10.3999C19.1 8.87445 19.0987 7.79071 18.9881 6.96858C18.8799 6.16371 18.677 5.69999 18.3384 5.36143C17.9999 5.02286 17.5361 4.81992 16.7313 4.71171C15.9091 4.60118 14.8254 4.5999 13.3 4.5999H11.7C10.1745 4.5999 9.09076 4.60118 8.26863 4.71171ZM8.69995 10.3999C8.69995 10.0685 8.96858 9.7999 9.29995 9.7999H15.7C16.0313 9.7999 16.3 10.0685 16.3 10.3999C16.3 10.7313 16.0313 10.9999 15.7 10.9999H9.29995C8.96858 10.9999 8.69995 10.7313 8.69995 10.3999ZM8.69995 13.5999C8.69995 13.2685 8.96858 12.9999 9.29995 12.9999H13.3C13.6313 12.9999 13.9 13.2685 13.9 13.5999C13.9 13.9313 13.6313 14.1999 13.3 14.1999H9.29995C8.96858 14.1999 8.69995 13.9313 8.69995 13.5999Z" fill="currentColor"/>
</svg>
