<svg viewBox="0 0 32 33" fill="none" xmlns="http://www.w3.org/2000/svg">
    <path d="M22.8003 11.7002H9.2002" stroke="currentColor" stroke-width="1.2" stroke-linecap="round"/>
    <path d="M21.4665 13.7002L21.0986 19.2195C20.957 21.3434 20.8862 22.4054 20.1942 23.0528C19.5022 23.7002 18.4379 23.7002 16.3092 23.7002H15.6905C13.5619 23.7002 12.4976 23.7002 11.8056 23.0528C11.1135 22.4054 11.0428 21.3434 10.9012 19.2195L10.5332 13.7002"
          stroke="currentColor" stroke-width="1.2" stroke-linecap="round"/>
    <path d="M14 15.7002L14.4 19.7002" stroke="currentColor" stroke-width="1.2" stroke-linecap="round"/>
    <path d="M17.9996 15.7002L17.5996 19.7002" stroke="currentColor" stroke-width="1.2" stroke-linecap="round"/>
    <path d="M11.5996 11.6998C11.6443 11.6998 11.6667 11.6998 11.6869 11.6993C12.3457 11.6826 12.9268 11.2637 13.151 10.6441C13.1579 10.625 13.1649 10.6038 13.1791 10.5614L13.2568 10.3284C13.3231 10.1295 13.3562 10.03 13.4002 9.94556C13.5756 9.60866 13.9002 9.37471 14.2753 9.31482C14.3693 9.2998 14.4741 9.2998 14.6838 9.2998H17.3154C17.5251 9.2998 17.6299 9.2998 17.7239 9.31482C18.099 9.37471 18.4236 9.60866 18.599 9.94556C18.643 10.03 18.6762 10.1295 18.7425 10.3284L18.8201 10.5614C18.8343 10.6037 18.8413 10.625 18.8482 10.6441C19.0724 11.2637 19.6535 11.6826 20.3123 11.6993C20.3326 11.6998 20.3549 11.6998 20.3996 11.6998"
          stroke="currentColor" stroke-width="1.2"/>
</svg>
