<svg  viewBox="0 0 24 24" fill="none" xmlns="http://www.w3.org/2000/svg">
<path d="M9.6 17.6004C7.35286 17.6004 6.22929 17.6004 5.42218 17.0611C5.07277 16.8276 4.77276 16.5276 4.5393 16.1782C4 15.3711 4 14.2475 4 12.0004C4 9.75325 4 8.62968 4.5393 7.82257C4.77276 7.47316 5.07277 7.17316 5.42218 6.93969C6.22929 6.40039 7.35286 6.40039 9.6 6.40039L14.4 6.40039C16.6471 6.40039 17.7707 6.40039 18.5778 6.93969C18.9272 7.17315 19.2272 7.47316 19.4607 7.82257C20 8.62968 20 9.75325 20 12.0004C20 14.2475 20 15.3711 19.4607 16.1782C19.2272 16.5276 18.9272 16.8276 18.5778 17.0611C17.7707 17.6004 16.6471 17.6004 14.4 17.6004H9.6Z" stroke="currentColor" stroke-width="1.2"/>
<path d="M12.0001 9.60039C13.3256 9.60039 14.4001 10.6749 14.4001 12.0004C14.4001 13.3259 13.3256 14.4004 12.0001 14.4004C10.6746 14.4004 9.6001 13.3259 9.6001 12.0004C9.6001 10.6749 10.6746 9.60039 12.0001 9.60039Z" stroke="currentColor" stroke-width="1.2"/>
<path d="M6.7998 14.4004L6.7998 9.60039" stroke="currentColor" stroke-width="1.2" stroke-linecap="round"/>
<path d="M17.2002 14.4004L17.2002 9.60039" stroke="currentColor" stroke-width="1.2" stroke-linecap="round"/>
</svg>
