<svg  viewBox="0 0 32 32" fill="none" xmlns="http://www.w3.org/2000/svg">
<path d="M17.8881 9.66293L18.6296 8.92142C19.8581 7.69286 21.85 7.69286 23.0786 8.92142C24.3071 10.15 24.3071 12.1419 23.0786 13.3704L22.3371 14.1119M17.8881 9.66293C17.8881 9.66293 17.9807 11.2386 19.3711 12.6289C20.7614 14.0193 22.3371 14.1119 22.3371 14.1119M17.8881 9.66293L11.0711 16.4799C10.6093 16.9416 10.3785 17.1725 10.1799 17.4271C9.94571 17.7273 9.74491 18.0522 9.58107 18.396C9.44219 18.6874 9.33894 18.9972 9.13245 19.6167L8.25745 22.2417M22.3371 14.1119L15.5201 20.9289C15.0584 21.3907 14.8275 21.6215 14.5729 21.8201C14.2727 22.0543 13.9478 22.2551 13.604 22.4189C13.3126 22.5578 13.0028 22.6611 12.3833 22.8676L9.75834 23.7426M9.75834 23.7426L9.11667 23.9564C8.81182 24.0581 8.47573 23.9787 8.2485 23.7515C8.02128 23.5243 7.94194 23.1882 8.04356 22.8833L8.25745 22.2417M9.75834 23.7426L8.25745 22.2417" stroke="currentColor" stroke-width="1.2"/>
</svg>
