<svg viewBox="0 0 30 30" fill="none" xmlns="http://www.w3.org/2000/svg">
<path d="M6.46447 23.5355C7.92893 25 10.286 25 15 25C19.714 25 22.0711 25 23.5355 23.5355C25 22.0711 25 19.714 25 15C25 14.6585 25 14.4878 24.9848 14.3142C24.9142 13.5049 24.586 12.7126 24.0637 12.0903C23.9516 11.9569 23.828 11.8332 23.5806 11.5858L18.4142 6.41944C18.1668 6.17206 18.0431 6.04835 17.9097 5.93631C17.2874 5.414 16.4951 5.08581 15.6858 5.01515C15.5122 5 15.3415 5 15 5C10.286 5 7.92893 5 6.46447 6.46447C5 7.92893 5 10.286 5 15C5 19.714 5 22.0711 6.46447 23.5355Z" stroke="currentColor" stroke-width="1.5"/>
<path d="M15 15H14.5C13.0955 15 12.3933 15 11.8889 15.3371C11.6705 15.483 11.483 15.6705 11.3371 15.8889C11 16.3933 11 17.0955 11 18.5C11 19.9045 11 20.6067 11.3371 21.1111C11.483 21.3295 11.6705 21.517 11.8889 21.6629C12.3933 22 13.0955 22 14.5 22H15M15 15H15.5C16.9045 15 17.6067 15 18.1111 15.3371C18.3295 15.483 18.517 15.6705 18.6629 15.8889C19 16.3933 19 17.0955 19 18.5M15 15V18.5M15 22H15.5C16.9045 22 17.6067 22 18.1111 21.6629C18.3295 21.517 18.517 21.3295 18.6629 21.1111C19 20.6067 19 19.9045 19 18.5M15 22V18.5M15 18.5H19" stroke="currentColor" stroke-width="1.5"/>
</svg>
