<svg viewBox="0 0 24 24" fill="currentColor" xmlns="http://www.w3.org/2000/svg">
<path fill-rule="evenodd" clip-rule="evenodd" d="M12.2 4.66728C11.8317 4.60469 11.3296 4.59994 10.4239 4.59994C8.89051 4.59994 7.80062 4.60121 6.97431 4.7118C6.16479 4.82014 5.69965 5.02337 5.36155 5.36147C5.02298 5.70003 4.82004 6.16375 4.71183 6.96862C4.6013 7.79075 4.60002 8.87449 4.60002 10.3999V13.5999C4.60002 15.1254 4.6013 16.2091 4.71183 17.0313C4.82004 17.8361 5.02298 18.2999 5.36155 18.6384C5.70012 18.977 6.16383 19.1799 6.9687 19.2881C7.79083 19.3987 8.87457 19.3999 10.4 19.3999H13.6C15.1255 19.3999 16.2092 19.3987 17.0313 19.2881C17.8362 19.1799 18.2999 18.977 18.6385 18.6384C18.9771 18.2999 19.18 17.8361 19.2882 17.0313C19.3987 16.2091 19.4 15.1254 19.4 13.5999V13.2503C19.4 12.0215 19.3914 11.4389 19.261 10.9999H16.7571C15.8508 11 15.1102 11 14.5255 10.9214C13.9144 10.8392 13.3845 10.6614 12.9615 10.2384C12.5386 9.81547 12.3608 9.2856 12.2786 8.67444C12.2 8.08974 12.2 7.34916 12.2 6.44289V4.66728ZM13.4 5.2875V6.39994C13.4 7.35971 13.4013 8.01918 13.4679 8.51454C13.5322 8.99263 13.6472 9.22706 13.8101 9.38989C13.9729 9.55272 14.2073 9.66779 14.6854 9.73207C15.1808 9.79867 15.8403 9.79994 16.8 9.79994H18.4156C18.1784 9.56991 17.8746 9.29428 17.48 8.93916L14.313 6.08884C13.9247 5.73936 13.6357 5.4814 13.4 5.2875ZM10.5404 3.39992C11.6481 3.39963 12.3637 3.39943 13.0224 3.65219C13.681 3.90493 14.2106 4.38178 15.0299 5.11954C15.0581 5.14501 15.0868 5.17079 15.1158 5.19688L18.2828 8.0472C18.3165 8.07754 18.3498 8.1075 18.3827 8.1371C19.3296 8.98881 19.942 9.53957 20.2713 10.2791C20.6007 11.0187 20.6004 11.8422 20.6 13.1158C20.6 13.1601 20.6 13.2049 20.6 13.2503V13.6451C20.6 15.1153 20.6 16.2798 20.4775 17.1912C20.3514 18.1291 20.0857 18.8883 19.487 19.4869C18.8883 20.0856 18.1292 20.3513 17.1912 20.4774C16.2799 20.6 15.1154 20.6 13.6452 20.5999H10.3549C8.88469 20.6 7.72018 20.6 6.80881 20.4774C5.87087 20.3513 5.11171 20.0856 4.51302 19.4869C3.91433 18.8883 3.64864 18.1291 3.52253 17.1912C3.4 16.2798 3.40001 15.1153 3.40002 13.6451V10.3548C3.40001 8.8846 3.4 7.7201 3.52253 6.80872C3.64864 5.87079 3.91433 5.11163 4.51302 4.51294C5.11218 3.91378 5.87388 3.64838 6.81512 3.5224C7.73029 3.39992 8.90059 3.39993 10.3788 3.39994L10.4239 3.39994C10.4632 3.39994 10.502 3.39993 10.5404 3.39992Z" fill="currentColor"/>
</svg>
