<svg width="24" height="24" viewBox="0 0 24 24" fill="none" xmlns="http://www.w3.org/2000/svg">
<path fill-rule="evenodd" clip-rule="evenodd" d="M11.1548 3.3999H12.8451C14.3153 3.39989 15.4798 3.39988 16.3912 3.52241C17.3291 3.64851 18.0883 3.91421 18.687 4.5129C19.2856 5.11159 19.5513 5.87075 19.6774 6.80868C19.8 7.72006 19.8 8.88456 19.8 10.3548V13.645C19.8 15.1152 19.8 16.2797 19.6774 17.1911C19.5513 18.1291 19.2856 18.8882 18.687 19.4869C18.0883 20.0856 17.3291 20.3513 16.3912 20.4774C15.4798 20.5999 14.3153 20.5999 12.8451 20.5999H11.1548C9.68461 20.5999 8.52011 20.5999 7.60873 20.4774C6.6708 20.3513 5.91164 20.0856 5.31295 19.4869C4.71426 18.8882 4.44856 18.1291 4.32246 17.1911C4.19993 16.2797 4.19994 15.1152 4.19995 13.645V10.3548C4.19994 8.88456 4.19993 7.72006 4.32246 6.80868C4.44856 5.87075 4.71426 5.11159 5.31295 4.5129C5.91164 3.91421 6.6708 3.64851 7.60873 3.52241C8.5201 3.39988 9.68461 3.39989 11.1548 3.3999ZM7.76863 4.71171C6.96376 4.81992 6.50004 5.02286 6.16147 5.36143C5.82291 5.69999 5.61997 6.16371 5.51176 6.96858C5.40123 7.79071 5.39995 8.87445 5.39995 10.3999V13.5999C5.39995 15.1254 5.40123 16.2091 5.51176 17.0312C5.61997 17.8361 5.82291 18.2998 6.16147 18.6384C6.50004 18.9769 6.96376 19.1799 7.76863 19.2881C8.59076 19.3986 9.6745 19.3999 11.2 19.3999H12.8C14.3254 19.3999 15.4091 19.3986 16.2313 19.2881C17.0361 19.1799 17.4999 18.9769 17.8384 18.6384C18.177 18.2998 18.3799 17.8361 18.4881 17.0312C18.5987 16.2091 18.6 15.1254 18.6 13.5999V10.3999C18.6 8.87445 18.5987 7.79071 18.4881 6.96858C18.3799 6.16371 18.177 5.69999 17.8384 5.36143C17.4999 5.02286 17.0361 4.81992 16.2313 4.71171C15.4091 4.60118 14.3254 4.5999 12.8 4.5999H11.2C9.6745 4.5999 8.59076 4.60118 7.76863 4.71171ZM8.19995 10.3999C8.19995 10.0685 8.46858 9.7999 8.79995 9.7999H15.2C15.5313 9.7999 15.8 10.0685 15.8 10.3999C15.8 10.7313 15.5313 10.9999 15.2 10.9999H8.79995C8.46858 10.9999 8.19995 10.7313 8.19995 10.3999ZM8.19995 13.5999C8.19995 13.2685 8.46858 12.9999 8.79995 12.9999H12.8C13.1313 12.9999 13.4 13.2685 13.4 13.5999C13.4 13.9313 13.1313 14.1999 12.8 14.1999H8.79995C8.46858 14.1999 8.19995 13.9313 8.19995 13.5999Z" fill="#2F94FC"/>
</svg>
